<svg width="437" height="42" xmlns="http://www.w3.org/2000/svg"><g fill="none" fill-rule="evenodd"><path d="M17.15 9.222h8.005V4.231H2v4.991h7.93V30.7h7.22V9.222zm21.235 6.617v-5.256s-1.721-.076-2.395-.076c-6.508 0-10.847 1.286-10.847 1.286v18.906h6.994v-14.52s1.684-.492 3.779-.492c1.197 0 2.469.152 2.469.152zm13.878 23.82l11.484-28.811h-7.594l-4.002 13.65h-.225l-4.601-13.65h-7.818l9.052 19.85-3.403 8.962h7.107zm11.995-21.665c0 1.853.86 4.349 3.704 5.936-1.16.795-3.854 2.685-3.854 5.332 0 2.269 1.01 3.516 2.507 4.235 1.983.983 4.825.945 6.92.983 1.272.037 5.238-.416 5.238 1.588 0 .794-.225 1.361-.488 1.966L77.463 40h6.472l1.234-2.798c.45-1.058.823-2.08.823-3.402 0-1.362-.561-2.307-1.384-2.912-1.533-1.097-3.966-1.21-5.686-1.248l-4.377-.075c-2.469-.038-3.59-.53-3.59-1.816 0-1.436 1.495-2.457 1.495-2.457s1.646.188 3.068.188c8.716 0 10.212-4.612 10.212-7.486 0-.945-.3-1.852-.598-2.42h3.59v-4.726l-9.875.076s-1.608-.454-3.853-.454c-9.165 0-10.736 4.575-10.736 7.524zm14.814 0c0 2.458-1.16 3.97-4.078 3.97-2.88 0-4.04-1.512-4.04-3.97 0-2.457 1.16-3.97 4.04-3.97 2.918 0 4.078 1.513 4.078 3.97zm20.15-8.772h13.167V4.231h-20.35v26.468h7.182v-9.491h9.464v-4.915H99.22v-7.07zm34.738 11.533c0-7.714-4.527-10.512-11.073-10.512s-11.26 2.798-11.26 10.512c0 7.41 5.237 10.548 11.26 10.548s11.073-3.138 11.073-10.548zm-7.033 0c0 3.251-.15 6.427-4.04 6.427s-4.227-3.176-4.227-6.427c0-3.214.336-6.391 4.227-6.391 3.89 0 4.04 3.177 4.04 6.39zm24.302 9.944h6.995V17.2c0-5.596-3.815-6.693-9.688-6.693-3.666 0-10.811.983-10.811.983V30.7h6.995V15.537s1.833-.266 3.143-.266c1.757 0 3.366.34 3.366 2.912V30.7zm32.681-.076V2h-6.995v8.81a35.543 35.543 0 00-4.527-.303c-1.945 0-3.778.227-5.124.832-3.74 1.627-5.5 5.672-5.5 9.642 0 4.009 1.834 7.714 5.574 9.339 2.095.946 4.714.908 6.958.908 3.704 0 9.015-.567 9.614-.605zm-6.958-15.616v11.759a19.231 19.231 0 01-3.292.19c-3.516-.076-4.488-3.252-4.488-5.9 0-3.591 1.234-6.276 4.9-6.276 1.347 0 2.88.227 2.88.227zm17.906 7.714h14.252c.261-8.319-2.32-12.44-10.475-12.44-7.07 0-10.885 3.97-10.885 10.36 0 7.94 5.236 10.587 12.232 10.587 4.003 0 7.37-.718 7.37-.718V26.5s-3.18.606-6.248.606c-2.918 0-6.246-.946-6.246-4.386zm7.48-3.744h-7.518c.112-2.533.599-4.764 3.778-4.764 3.18 0 3.666 2.231 3.74 4.764zM226.006 30.7H233V17.2c0-5.596-3.815-6.693-9.689-6.693-3.665 0-10.81.983-10.81.983V30.7h6.995V15.537s1.833-.266 3.142-.266c1.758 0 3.367.34 3.367 2.912V30.7z" fill="#000"/><path d="M257.83 5.711c1.763-.857 3.57-.911 5.37-.313a7.004 7.004 0 013.686 2.89c3.4-1.167 7.153.358 8.713 3.541 1.685 3.444.2 7.589-3.315 9.242l-3.666 1.724 2.9 5.67 3.922-1.925a1.088 1.088 0 011.446.471 1.046 1.046 0 01-.481 1.417l-4.982 2.446c-.28.14-.607.165-.906.067a1.169 1.169 0 01-.685-.586l-3.35-6.555-.456.214-5.749 2.704-3.027-6.18-.268-.553-6.398 3.115 1.952 3.85c.176.339.154.744-.06 1.062a1.085 1.085 0 01-.971.473 1.078 1.078 0 01-.9-.596L248.127 23a1.132 1.132 0 01-.065-.886c.1-.293.315-.533.598-.669l7.296-3.552-1.44-2.94a6.754 6.754 0 01-.296-5.293c.626-1.743 1.919-3.126 3.61-3.948zm3.152 1.292L260 14.78l2.393-.098L261.357 21 265 12.281l-2.77.025 1.36-4.655c-.054-.03-.105-.062-.162-.09-.793-.393-1.608-.587-2.446-.558z" fill="#DE0000" fill-rule="nonzero"/><path d="M293.852 26.04v-5.893h4.95v5.893h3.851V12.15h-3.852v5.338h-4.95v-5.337H290V26.04h3.852zm15.863-12.084V11h-3.752v2.956h3.752zM305.744 31c3.589-3.684 3.937-3.635 3.951-6.78v-8.597h-3.732v8.988c0 2.282-.798 2.54-2.455 4.464L305.744 31zm13.13-4.683c2.135 0 3.93-.377 3.93-.377v-2.103s-1.696.318-3.332.318c-1.557 0-3.333-.496-3.333-2.302h7.604c.14-4.365-1.238-6.528-5.588-6.528-3.772 0-5.808 2.084-5.808 5.437 0 4.167 2.794 5.555 6.526 5.555zm1.256-6.428h-4.011c.06-1.33.32-2.5 2.016-2.5s1.956 1.17 1.995 2.5zm9.737 6.15v-7.618s1.137-.258 2.255-.258c.639 0 1.317.08 1.317.08v-2.759s-.918-.04-1.277-.04c-3.672 0-6.027.675-6.027.675v9.92h3.732zm13.648 0v-2.52h-1.557c-.678 0-1.197-.039-1.497-.336-.239-.219-.339-.576-.339-1.151v-3.89h3.313v-2.519h-3.313v-3.83l-3.692 1.43v2.4h-2.136v2.52h2.136v4.206c0 1.488.32 2.381.858 2.917.692.688 1.77.766 3.037.773h3.19zm8.24.278c2.135 0 3.931-.377 3.931-.377v-2.103s-1.696.318-3.333.318c-1.556 0-3.333-.496-3.333-2.302h7.604c.14-4.365-1.237-6.528-5.588-6.528-3.772 0-5.808 2.084-5.808 5.437 0 4.167 2.794 5.555 6.527 5.555zm1.257-6.428H349c.06-1.33.32-2.5 2.016-2.5 1.697 0 1.956 1.17 1.996 2.5zm9.517 6.428c2.994 0 5.189-1.15 5.189-3.81 0-2.221-1.856-2.757-3.273-2.995-1.377-.238-2.655-.159-2.655-1.032 0-1.012 1.677-.972 2.375-.972.739 0 2.934.298 2.934.298v-2.004s-1.816-.358-3.552-.358c-2.934 0-5.25.913-5.25 3.433 0 2.302 2.037 2.996 3.773 3.294 1.197.218 2.215.139 2.215.952 0 .853-1.018 1.071-2.135 1.071-1.836 0-3.752-.436-3.752-.436v2.163s2.454.396 4.13.396zm15.804-.277v-2.52h-1.557c-.679 0-1.198-.04-1.497-.337-.24-.219-.34-.576-.34-1.151v-3.89h3.314v-2.519h-3.313v-3.83l-3.693 1.43v2.4h-2.135v2.52h2.135v4.206c0 1.488.32 2.381.859 2.917.692.688 1.77.766 3.037.773h3.19zm7.221.317c1.936 0 5.13-.337 5.13-.337v-7.083c0-3.235-2.815-3.493-5.27-3.493-2.454 0-4.63.377-4.63.377v2.104s1.936-.338 3.673-.338c2.375 0 2.514.695 2.534 2.024-2.993 0-7.225-.278-7.225 3.274 0 3.63 3.593 3.472 5.788 3.472zm-.08-2.004c-.997 0-1.995-.08-1.995-1.389 0-1.29.998-1.369 1.995-1.369.26 0 1.258 0 1.577.02v2.62c-.479.078-1.078.118-1.577.118zm12.072 1.687v-7.62l.04-.008c.213-.045 1.222-.25 2.215-.25.639 0 1.317.08 1.317.08v-2.758s-.918-.04-1.277-.04c-3.672 0-6.027.675-6.027.675v9.92h3.732zm13.648 0v-2.52h-1.557c-.678 0-1.197-.04-1.496-.337-.24-.219-.34-.576-.34-1.151v-3.89h3.313v-2.519h-3.313v-3.83l-3.692 1.43v2.4h-2.135v2.52h2.135v4.206c0 1.488.32 2.381.858 2.917.693.688 1.77.766 3.038.773h3.19zm8.24.277c2.135 0 3.931-.377 3.931-.377v-2.103s-1.696.318-3.333.318c-1.556 0-3.333-.496-3.333-2.302h7.604c.14-4.365-1.237-6.528-5.588-6.528-3.772 0-5.808 2.084-5.808 5.437 0 4.167 2.795 5.555 6.527 5.555zm1.257-6.428h-4.011c.06-1.33.319-2.5 2.015-2.5 1.697 0 1.956 1.17 1.996 2.5zm9.737 6.15v-7.618l.04-.01c.212-.044 1.221-.248 2.215-.248.638 0 1.317.08 1.317.08v-2.759s-.918-.04-1.277-.04c-3.673 0-6.028.675-6.028.675v9.92h3.733z" fill="#000" fill-rule="nonzero"/></g></svg>