<svg width="437" height="42" xmlns="http://www.w3.org/2000/svg">
 <g>
  <title>Layer 1</title>
  <path d="m17.15,9.222l8.005,0l0,-4.991l-23.155,0l0,4.991l7.93,0l0,21.478l7.22,0l0,-21.478zm21.235,6.617l0,-5.256s-1.721,-0.076 -2.395,-0.076c-6.508,0 -10.847,1.286 -10.847,1.286l0,18.906l6.994,0l0,-14.52s1.684,-0.492 3.779,-0.492c1.197,0 2.469,0.152 2.469,0.152zm13.878,23.82l11.484,-28.811l-7.594,0l-4.002,13.65l-0.225,0l-4.601,-13.65l-7.818,0l9.052,19.85l-3.403,8.962l7.107,0l0,-0.001zm11.995,-21.665c0,1.853 0.86,4.349 3.704,5.936c-1.16,0.795 -3.854,2.685 -3.854,5.332c0,2.269 1.01,3.516 2.507,4.235c1.983,0.983 4.825,0.945 6.92,0.983c1.272,0.037 5.238,-0.416 5.238,1.588c0,0.794 -0.225,1.361 -0.488,1.966l-0.822,1.966l6.472,0l1.234,-2.798c0.45,-1.058 0.823,-2.08 0.823,-3.402c0,-1.362 -0.561,-2.307 -1.384,-2.912c-1.533,-1.097 -3.966,-1.21 -5.686,-1.248l-4.377,-0.075c-2.469,-0.038 -3.59,-0.53 -3.59,-1.816c0,-1.436 1.495,-2.457 1.495,-2.457s1.646,0.188 3.068,0.188c8.716,0 10.212,-4.612 10.212,-7.486c0,-0.945 -0.3,-1.852 -0.598,-2.42l3.59,0l0,-4.726l-9.875,0.076s-1.608,-0.454 -3.853,-0.454c-9.165,0 -10.736,4.575 -10.736,7.524zm14.814,0c0,2.458 -1.16,3.97 -4.078,3.97c-2.88,0 -4.04,-1.512 -4.04,-3.97c0,-2.457 1.16,-3.97 4.04,-3.97c2.918,0 4.078,1.513 4.078,3.97zm20.15,-8.772l13.167,0l0,-4.991l-20.35,0l0,26.468l7.182,0l0,-9.491l9.464,0l0,-4.915l-9.465,0l0,-7.07l0.002,-0.001zm34.738,11.533c0,-7.714 -4.527,-10.512 -11.073,-10.512s-11.26,2.798 -11.26,10.512c0,7.41 5.237,10.548 11.26,10.548s11.073,-3.138 11.073,-10.548zm-7.033,0c0,3.251 -0.15,6.427 -4.04,6.427s-4.227,-3.176 -4.227,-6.427c0,-3.214 0.336,-6.391 4.227,-6.391c3.89,0 4.04,3.177 4.04,6.39l0,0.001zm24.302,9.944l6.995,0l0,-13.499c0,-5.596 -3.815,-6.693 -9.688,-6.693c-3.666,0 -10.811,0.983 -10.811,0.983l0,19.21l6.995,0l0,-15.163s1.833,-0.266 3.143,-0.266c1.757,0 3.366,0.34 3.366,2.912l0,12.517l0,-0.001zm32.681,-0.076l0,-28.623l-6.995,0l0,8.81a35.543,35.543 0 0 0 -4.527,-0.303c-1.945,0 -3.778,0.227 -5.124,0.832c-3.74,1.627 -5.5,5.672 -5.5,9.642c0,4.009 1.834,7.714 5.574,9.339c2.095,0.946 4.714,0.908 6.958,0.908c3.704,0 9.015,-0.567 9.614,-0.605zm-6.958,-15.616l0,11.759a19.231,19.231 0 0 1 -3.292,0.19c-3.516,-0.076 -4.488,-3.252 -4.488,-5.9c0,-3.591 1.234,-6.276 4.9,-6.276c1.347,0 2.88,0.227 2.88,0.227zm17.906,7.714l14.252,0c0.261,-8.319 -2.32,-12.44 -10.475,-12.44c-7.07,0 -10.885,3.97 -10.885,10.36c0,7.94 5.236,10.587 12.232,10.587c4.003,0 7.37,-0.718 7.37,-0.718l0,-4.01s-3.18,0.606 -6.248,0.606c-2.918,0 -6.246,-0.946 -6.246,-4.386l0,0.001zm7.48,-3.744l-7.518,0c0.112,-2.533 0.599,-4.764 3.778,-4.764c3.18,0 3.666,2.231 3.74,4.764zm23.668,11.723l6.994,0l0,-13.5c0,-5.596 -3.815,-6.693 -9.689,-6.693c-3.665,0 -10.81,0.983 -10.81,0.983l0,19.21l6.995,0l0,-15.163s1.833,-0.266 3.142,-0.266c1.758,0 3.367,0.34 3.367,2.912l0,12.517l0.001,0z" fill="#ffffff" id="svg_2"/>
  <path d="m257.83,5.711c1.763,-0.857 3.57,-0.911 5.37,-0.313a7.004,7.004 0 0 1 3.686,2.89c3.4,-1.167 7.153,0.358 8.713,3.541c1.685,3.444 0.2,7.589 -3.315,9.242l-3.666,1.724l2.9,5.67l3.922,-1.925a1.088,1.088 0 0 1 1.446,0.471a1.046,1.046 0 0 1 -0.481,1.417l-4.982,2.446c-0.28,0.14 -0.607,0.165 -0.906,0.067a1.169,1.169 0 0 1 -0.685,-0.586l-3.35,-6.555l-0.456,0.214l-5.749,2.704l-3.027,-6.18l-0.268,-0.553l-6.398,3.115l1.952,3.85c0.176,0.339 0.154,0.744 -0.06,1.062a1.085,1.085 0 0 1 -0.971,0.473a1.078,1.078 0 0 1 -0.9,-0.596l-2.478,-4.889a1.132,1.132 0 0 1 -0.065,-0.886c0.1,-0.293 0.315,-0.533 0.598,-0.669l7.296,-3.552l-1.44,-2.94a6.754,6.754 0 0 1 -0.296,-5.293c0.626,-1.743 1.919,-3.126 3.61,-3.948l0,-0.001zm3.152,1.292l-0.982,7.777l2.393,-0.098l-1.036,6.318l3.643,-8.719l-2.77,0.025l1.36,-4.655c-0.054,-0.03 -0.105,-0.062 -0.162,-0.09c-0.793,-0.393 -1.608,-0.587 -2.446,-0.558z" fill="#DE0000" fill-rule="nonzero" id="svg_3"/>
  <path d="m293.852,26.04l0,-5.893l4.95,0l0,5.893l3.851,0l0,-13.89l-3.852,0l0,5.338l-4.95,0l0,-5.337l-3.851,0l0,13.889l3.852,0zm15.863,-12.084l0,-2.956l-3.752,0l0,2.956l3.752,0zm-3.971,17.044c3.589,-3.684 3.937,-3.635 3.951,-6.78l0,-8.597l-3.732,0l0,8.988c0,2.282 -0.798,2.54 -2.455,4.464l2.236,1.925zm13.13,-4.683c2.135,0 3.93,-0.377 3.93,-0.377l0,-2.103s-1.696,0.318 -3.332,0.318c-1.557,0 -3.333,-0.496 -3.333,-2.302l7.604,0c0.14,-4.365 -1.238,-6.528 -5.588,-6.528c-3.772,0 -5.808,2.084 -5.808,5.437c0,4.167 2.794,5.555 6.526,5.555l0.001,0zm1.256,-6.428l-4.011,0c0.06,-1.33 0.32,-2.5 2.016,-2.5s1.956,1.17 1.995,2.5zm9.737,6.15l0,-7.618s1.137,-0.258 2.255,-0.258c0.639,0 1.317,0.08 1.317,0.08l0,-2.759s-0.918,-0.04 -1.277,-0.04c-3.672,0 -6.027,0.675 -6.027,0.675l0,9.92l3.732,0zm13.648,0l0,-2.52l-1.557,0c-0.678,0 -1.197,-0.039 -1.497,-0.336c-0.239,-0.219 -0.339,-0.576 -0.339,-1.151l0,-3.89l3.313,0l0,-2.519l-3.313,0l0,-3.83l-3.692,1.43l0,2.4l-2.136,0l0,2.52l2.136,0l0,4.206c0,1.488 0.32,2.381 0.858,2.917c0.692,0.688 1.77,0.766 3.037,0.773l3.19,0zm8.24,0.278c2.135,0 3.931,-0.377 3.931,-0.377l0,-2.103s-1.696,0.318 -3.333,0.318c-1.556,0 -3.333,-0.496 -3.333,-2.302l7.604,0c0.14,-4.365 -1.237,-6.528 -5.588,-6.528c-3.772,0 -5.808,2.084 -5.808,5.437c0,4.167 2.794,5.555 6.527,5.555zm1.257,-6.428l-4.012,0c0.06,-1.33 0.32,-2.5 2.016,-2.5c1.697,0 1.956,1.17 1.996,2.5zm9.517,6.428c2.994,0 5.189,-1.15 5.189,-3.81c0,-2.221 -1.856,-2.757 -3.273,-2.995c-1.377,-0.238 -2.655,-0.159 -2.655,-1.032c0,-1.012 1.677,-0.972 2.375,-0.972c0.739,0 2.934,0.298 2.934,0.298l0,-2.004s-1.816,-0.358 -3.552,-0.358c-2.934,0 -5.25,0.913 -5.25,3.433c0,2.302 2.037,2.996 3.773,3.294c1.197,0.218 2.215,0.139 2.215,0.952c0,0.853 -1.018,1.071 -2.135,1.071c-1.836,0 -3.752,-0.436 -3.752,-0.436l0,2.163s2.454,0.396 4.13,0.396l0.001,0zm15.804,-0.277l0,-2.52l-1.557,0c-0.679,0 -1.198,-0.04 -1.497,-0.337c-0.24,-0.219 -0.34,-0.576 -0.34,-1.151l0,-3.89l3.314,0l0,-2.519l-3.313,0l0,-3.83l-3.693,1.43l0,2.4l-2.135,0l0,2.52l2.135,0l0,4.206c0,1.488 0.32,2.381 0.859,2.917c0.692,0.688 1.77,0.766 3.037,0.773l3.19,0l0,0.001zm7.221,0.317c1.936,0 5.13,-0.337 5.13,-0.337l0,-7.083c0,-3.235 -2.815,-3.493 -5.27,-3.493c-2.454,0 -4.63,0.377 -4.63,0.377l0,2.104s1.936,-0.338 3.673,-0.338c2.375,0 2.514,0.695 2.534,2.024c-2.993,0 -7.225,-0.278 -7.225,3.274c0,3.63 3.593,3.472 5.788,3.472zm-0.08,-2.004c-0.997,0 -1.995,-0.08 -1.995,-1.389c0,-1.29 0.998,-1.369 1.995,-1.369c0.26,0 1.258,0 1.577,0.02l0,2.62c-0.479,0.078 -1.078,0.118 -1.577,0.118zm12.072,1.687l0,-7.62l0.04,-0.008c0.213,-0.045 1.222,-0.25 2.215,-0.25c0.639,0 1.317,0.08 1.317,0.08l0,-2.758s-0.918,-0.04 -1.277,-0.04c-3.672,0 -6.027,0.675 -6.027,0.675l0,9.92l3.732,0l0,0.001zm13.648,0l0,-2.52l-1.557,0c-0.678,0 -1.197,-0.04 -1.496,-0.337c-0.24,-0.219 -0.34,-0.576 -0.34,-1.151l0,-3.89l3.313,0l0,-2.519l-3.313,0l0,-3.83l-3.692,1.43l0,2.4l-2.135,0l0,2.52l2.135,0l0,4.206c0,1.488 0.32,2.381 0.858,2.917c0.693,0.688 1.77,0.766 3.038,0.773l3.19,0l-0.001,0.001zm8.24,0.277c2.135,0 3.931,-0.377 3.931,-0.377l0,-2.103s-1.696,0.318 -3.333,0.318c-1.556,0 -3.333,-0.496 -3.333,-2.302l7.604,0c0.14,-4.365 -1.237,-6.528 -5.588,-6.528c-3.772,0 -5.808,2.084 -5.808,5.437c0,4.167 2.795,5.555 6.527,5.555zm1.257,-6.428l-4.011,0c0.06,-1.33 0.319,-2.5 2.015,-2.5c1.697,0 1.956,1.17 1.996,2.5zm9.737,6.15l0,-7.618l0.04,-0.01c0.212,-0.044 1.221,-0.248 2.215,-0.248c0.638,0 1.317,0.08 1.317,0.08l0,-2.759s-0.918,-0.04 -1.277,-0.04c-3.673,0 -6.028,0.675 -6.028,0.675l0,9.92l3.733,0z" fill="#ffffff" fill-rule="nonzero" id="svg_4"/>
 </g>

</svg>